<?xml version="1.0" standalone="no"?>
<!DOCTYPE svg PUBLIC "-//W3C//DTD SVG 20010904//EN"
 "http://www.w3.org/TR/2001/REC-SVG-20010904/DTD/svg10.dtd">
<svg version="1.0" xmlns="http://www.w3.org/2000/svg"
 width="839.000000pt" height="508.000000pt" viewBox="0 0 839.000000 508.000000"
 preserveAspectRatio="xMidYMid meet">
<metadata>
Created by potrace 1.16, written by Peter Selinger 2001-2019
</metadata>
<g transform="translate(0.000000,508.000000) scale(0.100000,-0.100000)"
fill="#000000" stroke="none">
<path d="M1517 4303 c-14 -17 -13 -29 14 -147 17 -70 29 -129 27 -131 -2 -1
-29 -19 -61 -39 -173 -109 -291 -308 -357 -604 -105 -473 29 -1116 338 -1617
68 -111 191 -297 255 -387 l49 -68 -34 -27 c-18 -15 -71 -64 -116 -108 -110
-105 -136 -155 -82 -155 11 0 26 12 34 28 17 32 110 121 182 174 l51 38 103
-143 c57 -78 112 -152 123 -164 21 -24 77 -32 77 -12 0 5 -12 51 -26 102 -14
51 -41 150 -59 220 l-34 128 67 43 c37 24 90 56 117 71 78 44 117 66 150 86
17 10 82 44 145 77 63 32 124 63 135 69 11 6 31 16 45 22 14 6 32 15 40 20 8
5 26 13 40 19 14 6 51 22 84 36 32 14 63 26 68 26 5 0 33 11 61 24 51 24 215
83 312 112 28 8 59 19 70 23 11 5 38 13 60 19 22 6 108 31 190 57 83 26 177
53 210 60 94 21 325 94 382 121 99 47 134 114 97 186 -9 17 -12 33 -7 37 4 4
31 24 58 46 28 21 76 63 108 94 l57 55 0 -52 c0 -69 19 -104 69 -126 45 -21
79 -16 120 15 160 121 330 235 332 221 3 -21 -5 -65 -27 -141 -13 -46 -24 -89
-24 -95 0 -6 13 -19 29 -29 27 -16 29 -16 43 1 20 24 39 75 43 114 1 18 8 61
15 95 16 76 5 126 -28 131 -35 5 -126 -42 -247 -127 -61 -43 -136 -93 -167
-110 -49 -28 -57 -30 -68 -16 -10 12 -11 32 -1 98 26 192 5 201 -144 57 -96
-93 -208 -180 -231 -180 -18 0 -18 3 5 137 19 108 17 163 -5 170 -20 7 -80
-44 -143 -120 -36 -42 -65 -76 -66 -74 -2 1 6 43 16 92 24 113 29 236 11 258
-12 14 -17 14 -50 -5 -50 -28 -140 -107 -302 -266 l-135 -133 -190 6 c-196 6
-345 18 -450 36 -104 17 -166 32 -171 41 -8 13 170 192 242 244 78 56 180 104
222 104 18 0 49 -7 68 -15 43 -18 58 -12 43 16 -16 31 -76 52 -129 46 -141
-17 -316 -135 -482 -324 l-45 -52 -79 38 c-88 43 -169 103 -209 155 l-26 34
43 44 c24 24 55 66 69 93 34 71 33 188 -5 303 -33 100 -36 93 89 218 217 216
511 380 805 449 92 21 224 19 275 -4 55 -24 91 -71 111 -138 15 -52 15 -63 1
-135 -26 -132 -120 -297 -243 -427 -75 -80 -125 -111 -178 -111 -50 0 -69 -9
-55 -26 17 -20 71 -27 116 -15 123 33 375 373 413 557 30 144 -22 274 -130
329 -68 34 -179 49 -265 35 -313 -50 -632 -220 -896 -477 l-105 -102 -37 63
c-20 35 -60 95 -88 132 -177 235 -362 346 -554 331 l-72 -5 -17 80 c-16 72
-58 188 -69 188 -2 0 -11 -8 -20 -17z m368 -331 c142 -63 319 -253 419 -449
l26 -52 -40 -62 c-53 -82 -79 -156 -84 -237 -4 -60 0 -86 29 -187 5 -17 -3
-25 -42 -44 -79 -39 -174 -70 -285 -95 -16 -4 -28 -11 -28 -17 0 -27 253 19
348 64 l44 20 61 -61 c60 -59 207 -157 254 -168 13 -4 23 -8 23 -11 0 -2 -19
-37 -43 -76 -82 -136 -113 -239 -105 -346 11 -136 53 -186 182 -217 69 -16 73
-16 156 6 90 25 263 108 376 182 107 70 168 121 328 270 l61 57 66 1 c123 0
249 -12 249 -25 0 -7 18 -19 40 -28 38 -15 41 -15 51 5 10 18 17 20 63 14 75
-8 154 -34 177 -57 26 -26 18 -55 -28 -96 -48 -43 -137 -76 -453 -168 -310
-89 -693 -216 -870 -287 -230 -93 -546 -253 -764 -385 -49 -30 -93 -55 -99
-56 -6 -1 -16 25 -23 58 -24 111 -93 539 -114 705 -23 189 -21 172 -55 475
-45 409 -61 526 -130 985 -5 27 3 18 34 -45 46 -94 51 -94 15 1 -31 82 -87
308 -82 332 8 39 148 36 243 -6z m-306 -64 c45 -221 127 -781 155 -1053 8 -72
26 -234 31 -275 3 -19 14 -116 25 -215 41 -352 114 -816 146 -926 3 -10 -14
-28 -52 -54 l-57 -39 -24 29 c-34 42 -168 241 -243 360 -129 205 -211 379
-278 585 -80 248 -108 400 -119 636 -16 374 99 740 289 920 50 48 97 84 109
84 4 0 12 -24 18 -52z m799 -560 c32 -128 23 -202 -35 -285 -19 -29 -39 -53
-43 -53 -15 0 -30 63 -30 125 0 35 8 86 20 119 21 62 60 136 71 136 3 0 11
-19 17 -42z m1547 -611 c-15 -73 -29 -134 -31 -136 -3 -4 -140 -1 -194 4 -14
1 -36 3 -49 4 l-24 1 24 26 c13 15 85 80 159 146 96 84 136 114 138 103 2 -9
-8 -76 -23 -148z m-1010 -140 c126 -19 340 -36 468 -38 48 -1 87 -5 87 -9 0
-14 -139 -137 -235 -209 -190 -142 -392 -242 -522 -256 -77 -9 -143 17 -168
65 -21 41 -23 145 -5 220 14 62 68 175 112 236 l29 41 62 -17 c34 -10 112 -25
172 -33z m-932 -1360 c15 -61 30 -123 33 -137 4 -14 -29 22 -75 84 -45 60 -78
112 -74 116 31 26 67 50 77 50 6 0 23 -51 39 -113z"/>
<path d="M1993 2269 c-49 -18 -68 -107 -34 -151 13 -15 18 -33 14 -46 -4 -16
-1 -22 11 -22 9 0 16 3 16 8 0 4 10 12 22 17 36 16 77 94 71 133 -7 40 -64 75
-100 61z"/>
<path d="M5755 4122 c-41 -29 -106 -232 -146 -454 -6 -35 -15 -83 -20 -108
-14 -69 -36 -202 -56 -337 l-18 -121 -95 -26 c-190 -50 -211 -52 -282 -23
-131 52 -303 75 -365 48 -40 -16 -41 -29 -5 -63 64 -62 195 -94 348 -85 l104
6 88 -59 c49 -33 113 -84 144 -112 55 -53 55 -53 62 -126 12 -137 64 -293 120
-359 27 -32 113 -70 128 -55 11 11 -20 206 -42 261 -21 54 -64 129 -109 191
-29 40 -31 49 -31 125 0 45 3 116 6 158 l7 75 90 32 c101 35 248 106 350 168
75 47 82 49 73 25 -4 -9 -22 -95 -41 -191 -60 -299 -47 -407 55 -451 27 -12
57 -21 67 -21 38 0 161 69 247 138 49 40 91 71 92 69 1 -1 -4 -31 -11 -67 -45
-207 6 -306 192 -376 97 -37 217 -34 533 12 65 10 75 12 149 32 89 25 119 47
51 39 -25 -3 -106 -13 -180 -21 -74 -9 -148 -18 -165 -21 -16 -2 -82 -7 -145
-11 -236 -14 -360 58 -360 208 0 29 14 106 30 172 17 65 30 129 30 142 0 55
-57 37 -145 -45 -114 -106 -250 -201 -308 -215 -23 -5 -34 -1 -57 23 -28 27
-30 35 -30 103 0 79 24 227 65 403 38 166 42 175 114 250 118 124 136 164 106
240 -9 25 -22 46 -28 46 -85 8 -144 -58 -198 -225 -23 -68 -38 -98 -62 -119
-84 -73 -271 -178 -421 -236 -44 -17 -81 -30 -82 -28 -3 3 22 160 46 292 12
66 26 138 30 160 15 84 52 242 66 285 8 25 16 54 19 65 2 11 9 41 15 67 19 80
6 143 -25 120z m-253 -1174 c-5 -133 0 -126 -57 -81 -27 22 -74 55 -103 75
l-53 36 98 25 c54 13 103 25 108 26 6 1 9 -30 7 -81z"/>
<path d="M6270 2103 c-165 -2 -605 -20 -680 -28 -25 -3 -103 -9 -175 -15 -71
-6 -182 -17 -245 -25 -63 -7 -140 -16 -170 -19 -540 -57 -1162 -200 -1572
-362 -449 -178 -736 -348 -726 -431 10 -89 215 -93 728 -17 269 40 431 63 495
70 33 3 62 7 65 9 3 2 40 7 81 11 40 3 77 8 80 10 6 4 386 46 524 59 110 10
478 36 610 44 181 10 784 10 945 0 198 -12 303 -19 335 -24 17 -2 59 -7 95
-10 73 -7 99 -10 220 -30 47 -8 102 -16 122 -19 20 -3 77 -15 125 -26 294 -66
460 -130 547 -212 45 -44 42 -55 -33 -93 -139 -69 -428 -97 -1156 -110 -187
-4 -348 -9 -359 -12 -96 -27 261 -38 769 -22 426 14 665 45 789 103 107 50
124 98 57 165 -77 77 -333 177 -551 217 -14 3 -70 13 -125 23 -411 77 -726
101 -1320 101 -203 0 -388 -2 -410 -5 -22 -2 -98 -7 -170 -10 -71 -4 -155 -8
-185 -11 -144 -10 -217 -16 -370 -29 -143 -13 -206 -20 -365 -40 -16 -2 -91
-11 -165 -20 -130 -16 -250 -33 -670 -95 -371 -55 -571 -62 -622 -20 l-23 18
25 28 c109 118 659 365 1059 476 505 138 921 209 1606 273 167 15 250 21 500
34 151 8 965 6 1040 -3 22 -2 81 -7 130 -11 151 -10 248 -26 294 -46 24 -10
47 -19 52 -19 14 0 11 46 -3 58 -35 29 -286 50 -698 57 -157 3 -298 7 -315 8
-16 1 -100 1 -185 0z"/>
</g>
</svg>
